# xmcd CD database file
#
# Track frame offsets:
#	150
#	16985
#	30645
#	49707
#	63320
#	88747
#	107565
#	122717
#	141130
#	155422
#
# Disc length: 2410 seconds
#
# Revision: 0
# Processed by: cddbd v1.5PL3 Copyright (c) Steve Scherf et al.
# Submitted via: CDex 1.51
#
DISCID=7c09680a
DTITLE=Kyle Jennings - Shine
DYEAR=2004
DGENRE=Country
TTITLE0=You Can Hear The Ryman Cry
TTITLE1=I Can't Leave The Fire Alone
TTITLE2=Can I Run In The Dark (And Still Walk In the Light)
TTITLE3=100% Chance of Fog
TTITLE4=Out In the Parking Lot
TTITLE5=You Don't Even Know
TTITLE6=Shine
TTITLE7=Little Miss Hard To Handle
TTITLE8=I'm Gettin' Too Old For This
TTITLE9=Down The River
EXTD=YEAR: 2004
EXTT0=
EXTT1=
EXTT2=
EXTT3=
EXTT4=
EXTT5=
EXTT6=
EXTT7=
EXTT8=
EXTT9=
PLAYORDER=
